<?xml version="1.0" standalone="no"?><!DOCTYPE svg PUBLIC "-//W3C//DTD SVG 1.1//EN" "http://www.w3.org/Graphics/SVG/1.1/DTD/svg11.dtd"><svg t="1701671931490" class="icon" viewBox="0 0 1252 1024" version="1.1" xmlns="http://www.w3.org/2000/svg" p-id="39954" xmlns:xlink="http://www.w3.org/1999/xlink" width="244.53125" height="200"><path d="M746.941217 355.162634a49.686261 49.686261 0 0 0 49.686261 49.692621h231.201392a49.686261 49.686261 0 1 0 0-99.378882h-231.195031a49.686261 49.686261 0 0 0-49.692622 49.686261z m280.887653 153.574559h-231.195031a49.686261 49.686261 0 1 0 0 99.378882h231.195031a49.686261 49.686261 0 1 0 0-99.378882z" fill="#000000" p-id="39955"></path><path d="M1189.62087 0h-352.993789c-86.448497 0-163.191255 42.371975-210.536944 107.443677C578.738087 42.378335 501.995329 0 415.540472 0h-352.993789C28.061416 0 0 28.061416 0 62.559404v773.603379c0 16.880099 6.614658 32.691677 18.629168 44.540819a61.872497 61.872497 0 0 0 44.776149 18.012224c141.744497-1.933516 334.148373 7.269764 409.918012 39.598907 44.852472 19.131627 99.264398 59.40472 114.872447 71.292025a62.45764 62.45764 0 0 0 37.888 12.739577 62.47036 62.47036 0 0 0 37.894361-12.739577c15.60805-11.887304 70.026335-52.154037 114.866087-71.298385 75.776-32.322783 268.173516-41.532422 409.924372-39.592547a61.866137 61.866137 0 0 0 44.776149-18.012224 62.107826 62.107826 0 0 0 18.629168-44.540819V62.559404c0-34.497988-28.061416-62.559404-62.553043-62.559404zM264.160199 803.954484c-63.538882-3.924273-124.126609-4.808348-164.781317-4.833788V99.378882h316.16795c88.693665 0 160.850683 72.157019 160.850684 160.850683h0.642385v621.110062c-20.645366-12.752298-43.109764-25.212025-64.715528-34.434385-50.233242-21.434037-133.724224-35.884522-248.164174-42.950758z m888.634832-4.833788c-40.648348 0.025441-101.242435 0.909516-164.781317 4.833788-114.43995 7.072596-197.930932 21.523081-248.164174 42.950758-21.160547 9.031553-43.141565 21.173267-63.430757 33.645715v-634.625591c7.263404-82.015404 76.335702-146.546484 160.208298-146.546484h316.16795v699.735453z" fill="#000000" p-id="39956"></path><path d="M455.546435 305.476373H224.345043a49.686261 49.686261 0 1 0 0 99.378882h231.195032a49.686261 49.686261 0 1 0 0-99.378882z m0 203.26082H224.345043a49.686261 49.686261 0 1 0 0 99.378882h231.195032a49.686261 49.686261 0 1 0 0-99.378882z" fill="#000000" p-id="39957"></path></svg>