<?xml version="1.0" standalone="no"?><!DOCTYPE svg PUBLIC "-//W3C//DTD SVG 1.1//EN" "http://www.w3.org/Graphics/SVG/1.1/DTD/svg11.dtd"><svg t="1701671227681" class="icon" viewBox="0 0 1024 1024" version="1.1" xmlns="http://www.w3.org/2000/svg" p-id="13400" xmlns:xlink="http://www.w3.org/1999/xlink" width="200" height="200"><path d="M817.6 76.16c20.48 11.648 35.072 30.656 40.704 52.672l163.008 611.968c5.76 21.888 2.24 45.056-9.728 64.512-12.16 19.456-31.936 33.472-54.976 38.976l-117.184 28.48a94.464 94.464 0 0 1-22.016 2.304c-40.896 0.128-76.608-26.24-86.72-64L604.928 338.56v472.064c0 22.848-9.6 44.8-26.688 60.8-17.088 16.064-40.256 24.96-64.256 24.64H391.872a92.032 92.032 0 0 1-58.688-21.312l3.776-3.328-7.04 6.016c-15.808 11.968-35.456 18.56-55.872 18.56H151.936c-49.024-0.64-88.32-38.72-87.936-85.376V179.392a82.816 82.816 0 0 1 25.92-60.352 91.52 91.52 0 0 1 63.232-25.088H275.2c19.072 0.256 36.736 6.144 51.2 16l6.848 5.312 3.52-2.944c16-11.968 35.776-18.496 56.256-18.368H515.2c27.776 0 52.672 12.032 69.12 30.912 12.032-14.528 28.928-24.96 48.128-29.76l117.184-28.48c23.04-5.568 47.552-2.176 67.968 9.536zM274.048 148.608h-120.96a30.08 30.08 0 0 0-20.864 8.32 27.2 27.2 0 0 0-8.384 20.16v633.472a27.2 27.2 0 0 0 8.32 20.096 30.08 30.08 0 0 0 20.992 8.32H275.2a29.888 29.888 0 0 0 28.16-18.752 65.92 65.92 0 0 1-0.64-9.664V179.392c0-3.84 0.192-7.68 0.768-11.392a25.6 25.6 0 0 0-6.656-10.688 30.72 30.72 0 0 0-22.848-8.704z m239.936 0H393.088a29.184 29.184 0 0 0-29.312 28.48v633.472c0 15.488 13.056 28.16 29.312 28.48H515.2a29.12 29.12 0 0 0 28.672-28.48V179.392a27.648 27.648 0 0 0-7.808-21.632 30.656 30.656 0 0 0-22.08-9.152z m257.664-29.056h-7.36l-117.248 29.056a29.248 29.248 0 0 0-18.304 12.8 29.44 29.44 0 0 0-3.008 21.44l162.368 614.336a30.08 30.08 0 0 0 36.032 20.352l117.824-29.632a31.104 31.104 0 0 0 18.304-12.8 28.864 28.864 0 0 0 0-21.504L800.32 142.72a29.056 29.056 0 0 0-28.672-21.504v-1.728z m-536.96 558.08c12.992 7.104 21.056 20.352 21.056 34.688 0 22.144-18.88 40.128-42.176 40.128-23.232 0-42.112-17.92-42.112-40.128 0-14.336 8.064-27.52 21.12-34.688a43.968 43.968 0 0 1 42.048 0z m218.88-5.376c23.232 0 42.112 17.92 42.112 40.064s-18.88 40.128-42.176 40.128c-23.232 0-42.112-17.92-42.112-40.128 0-22.144 18.88-40.064 42.112-40.064z m396.8-32c23.296 0 42.112 17.92 42.112 40.128 0 22.144-18.816 40.064-42.112 40.064-23.232 0-42.112-17.92-42.112-40.064s18.88-40.128 42.112-40.128zM262.4 282.88c16.896 0 30.528 13.056 30.528 29.056 0 16.064-13.632 29.056-30.528 29.056H164.736a29.824 29.824 0 0 1-30.528-29.056c0-16 13.696-29.056 30.528-29.056H262.4z m240.64 0c16.832 0 30.464 13.056 30.464 29.056 0 16.064-13.632 29.056-30.528 29.056H404.672a29.824 29.824 0 0 1-30.528-29.056c0-16 13.696-29.056 30.528-29.056H503.04z m307.584-26.048a28.032 28.032 0 0 1 10.432 39.04 29.76 29.76 0 0 1-18.304 13.184l-94.656 22.656-7.936 1.152a30.464 30.464 0 0 1-34.176-25.6 29.632 29.632 0 0 1 26.88-32.512l95.232-20.928a30.592 30.592 0 0 1 22.528 3.008zM262.4 184.064c16.896 0 30.528 12.992 30.528 29.056 0 16-13.632 29.056-30.528 29.056H164.736a29.824 29.824 0 0 1-30.528-29.056c0-16.064 13.696-29.056 30.528-29.056H262.4z m240.64 0c16.832 0 30.464 12.992 30.464 29.056 0 16-13.632 29.056-30.528 29.056H404.672a29.824 29.824 0 0 1-30.528-29.056c0-16.064 13.696-29.056 30.528-29.056H503.04z m288-20.992a27.52 27.52 0 0 1 7.36 27.904 29.312 29.312 0 0 1-21.888 19.84l-94.656 22.592a15.552 15.552 0 0 1-7.296 3.52 30.464 30.464 0 0 1-34.176-25.6 29.632 29.632 0 0 1 26.88-32.512l94.592-23.232a30.976 30.976 0 0 1 29.184 7.488z" fill="#000000" p-id="13401"></path></svg>