<?xml version="1.0" standalone="no"?><!DOCTYPE svg PUBLIC "-//W3C//DTD SVG 1.1//EN" "http://www.w3.org/Graphics/SVG/1.1/DTD/svg11.dtd"><svg t="1701670976255" class="icon" viewBox="0 0 1024 1024" version="1.1" xmlns="http://www.w3.org/2000/svg" p-id="11369" xmlns:xlink="http://www.w3.org/1999/xlink" width="200" height="200"><path d="M755.05 884.81H314.94c-75.75 0-137.38-61.62-137.38-137.38V230.67c0-50.41 41.02-91.43 91.43-91.43h486.06c50.41 0 91.43 41.02 91.43 91.43v562.71c0 50.41-41.02 91.43-91.43 91.43zM268.99 212.38c-10.08 0-18.29 8.2-18.29 18.29v516.77c0 35.41 28.82 64.23 64.24 64.23h440.11c10.08 0 18.29-8.2 18.29-18.29V230.67c0-10.09-8.21-18.29-18.29-18.29H268.99z" fill="#000000" p-id="11370"></path><path d="M770.3 884.81H310.76c-68.68 0-124.55-55.88-124.55-124.55S242.08 635.7 310.76 635.7h411.17c68.68 0 124.55 55.88 124.55 124.55v48.38c0 42-34.17 76.18-76.18 76.18zM310.76 708.84c-28.35 0-51.41 23.07-51.41 51.41 0 28.34 23.06 51.41 51.41 51.41H770.3c1.67 0 3.04-1.36 3.04-3.04v-48.38c0-28.34-23.06-51.41-51.41-51.41H310.76zM325.95 481.84c-4.85 0-9.72-0.96-14.36-2.95a36.56 36.56 0 0 1-22.21-33.62V180.24c0-20.2 16.38-36.57 36.57-36.57H474.9c20.2 0 36.57 16.38 36.57 36.57v265.04a36.6 36.6 0 0 1-20.98 33.09c-12.81 6.04-27.97 4.12-38.88-4.89l-54.88-45.3-45.5 43.54a36.598 36.598 0 0 1-25.28 10.12z m69.02-139.16c8.24 0 16.5 2.77 23.28 8.38l20.09 16.59V216.81h-75.8v142.86l7.14-6.84a36.505 36.505 0 0 1 25.29-10.15z" fill="#000000" p-id="11371"></path></svg>