<?xml version="1.0" standalone="no"?><!DOCTYPE svg PUBLIC "-//W3C//DTD SVG 1.1//EN" "http://www.w3.org/Graphics/SVG/1.1/DTD/svg11.dtd"><svg t="1701670847935" class="icon" viewBox="0 0 1024 1024" version="1.1" xmlns="http://www.w3.org/2000/svg" p-id="8430" xmlns:xlink="http://www.w3.org/1999/xlink" width="200" height="200"><path d="M512 128.22c49.68 0 96.39 19.35 131.52 54.48C678.65 217.83 698 264.54 698 314.22s-19.35 96.39-54.48 131.52c-35.13 35.13-81.84 54.48-131.52 54.48s-96.39-19.35-131.52-54.48C345.35 410.61 326 363.91 326 314.22s19.35-96.39 54.48-131.52c35.13-35.13 81.84-54.48 131.52-54.48m0-64c-138.07 0-250 111.93-250 250s111.93 250 250 250 250-111.93 250-250-111.93-250-250-250z" p-id="8431"></path><path d="M551 529.42c0-16.04-12.94-29.14-28.98-29.17h-0.69c-55.45 0-109.22 11.92-159.83 35.42-48.65 22.59-92.29 54.87-129.69 95.95-37.21 40.86-66.41 88.39-86.78 141.26-17.37 45.09-27.66 92.46-30.72 141.22-1.05 16.79 12.3 30.97 29.12 30.97h5.68c15.44 0 28.12-12.04 29.12-27.45C190.98 720.4 340 564.25 521.34 564.25h0.3c16.19 0.02 29.37-12.98 29.37-29.17v-5.66zM897 666H749c-17.67 0-32-14.33-32-32s14.33-32 32-32h148c17.67 0 32 14.33 32 32s-14.33 32-32 32zM897 805.5H650c-17.67 0-32-14.33-32-32s14.33-32 32-32h247c17.67 0 32 14.33 32 32s-14.33 32-32 32zM897 945H650c-17.67 0-32-14.33-32-32s14.33-32 32-32h247c17.67 0 32 14.33 32 32s-14.33 32-32 32z" p-id="8432"></path></svg>